PathFileType	3	(X/Y/Z)	D:\minhoCalibration\240510\subject3_KPNP\preferred\preferred12.trc
DataRate	CameraRate	NumFrames	NumMarkers	Units	OrigDataRate	OrigDataStartFrame	OrigNumFrames
200.0	200.0	15	10	mm	200.0	425	136	
Frame#	Time	Left_Ankle_Outer1			Left_Ankle_Inner1			Left_Knee_Outer1			Left_Knee_Inner1			Left_Wrist1			Right_Wrist1			Right_Knee_Inner1			Right_Knee_Outer1			Right_Ankle_Inner1			Right_Ankle_Outer1			
		X1	Y1	Z1	X2	Y2	Z2	X3	Y3	Z3	X4	Y4	Z4	X5	Y5	Z5	X6	Y6	Z6	X7	Y7	Z7	X8	Y8	Z8	X9	Y9	Z9	X10	Y10	Z10	
425	2.115	-336.3595	102.39404	-529.68048	-391.07999	114.52218	-516.27557	-195.50346	505.62091	-407.65292	-282.23227	515.90942	-356.57123	-154.64363	893.12378	-586.40216	-458.46133	1060.2369	-452.26743	-324.75864	883.71997	-85.01162	-415.02139	951.97784	-93.471123	-401.63007	695.58813	285.19904	-491.10101	748.66504	284.53799
426	2.12	-336.38214	100.08344	-530.46637	-390.62381	112.74968	-517.68384	-196.81	504.94717	-410.11469	-284.49213	514.77289	-359.9798	-153.94579	894.1947	-584.70892	-462.16513	1056.2878	-451.95187	-326.06342	877.18774	-85.836891	-416.47565	945.36829	-93.638008	-411.99167	672.30444	272.85709	-502.0513	721.74872	271.88235
427	2.125	-334.9426	99.053223	-531.95569	-390.15112	111.26073	-519.28406	-197.71066	504.23169	-412.539	-286.88849	513.5401	-363.44742	-153.4648	895.2243	-582.96429	-465.67868	1052.2029	-451.96939	-327.46484	870.80066	-86.459641	-418.31906	938.77991	-94.007828	-422.86777	647.64221	260.32629	-513.31671	694.48712	257.57211
428	2.13	-334.91824	96.995842	-532.52008	-389.5148	109.71435	-520.63116	-198.63976	503.599	-414.51645	-289.00632	512.59271	-366.65823	-152.9082	896.06256	-581.30499	-469.05557	1048.0671	-452.1969	-329.08804	864.46399	-87.163139	-420.27133	931.3147	-94.831413	-432.04449	622.39789	245.42715	-524.06409	667.3999	241.7276
429	2.135	-333.27115	96.068291	-533.80231	-388.20987	107.75365	-521.57068	-199.65147	503.21072	-416.05017	-291.39682	511.57028	-369.61401	-152.36607	896.86224	-579.7522	-472.0766	1043.933	-452.79462	-330.99802	857.80249	-87.869057	-422.91385	923.05182	-95.991959	-441.84552	597.4726	229.42816	-535.39655	641.04877	224.6487
430	2.14	-332.41876	94.72197	-534.5	-387.71613	106.79221	-523.15393	-200.59415	502.69055	-417.42456	-293.27377	510.95511	-372.47556	-151.98637	897.50653	-578.14581	-474.69534	1039.6616	-453.74066	-333.39117	850.61035	-88.788818	-426.14163	914.58051	-97.281662	-451.50595	572.67987	212.12131	-545.48718	614.26978	205.61264
431	2.145	-331.3432	93.520149	-535.1416	-386.84158	105.56013	-524.2146	-201.6142	502.32703	-418.48163	-294.9451	510.3194	-375.28384	-151.30995	898.18365	-576.72437	-477.09082	1035.22	-454.91592	-336.48181	842.61963	-89.951759	-429.63034	905.0791	-99.228683	-461.12134	548.65161	194.14842	-555.28601	588.50287	185.35309
432	2.15	-330.43121	92.488251	-535.65894	-385.99036	104.40879	-525.14679	-202.61014	502.23209	-419.29541	-296.54477	509.88394	-377.58157	-151.04732	898.57745	-575.24756	-478.7413	1031.0348	-456.50156	-339.23502	833.8877	-91.342812	-433.93173	895.55963	-101.2639	-473.24951	524.58002	177.25288	-564.97943	563.76514	164.00438
433	2.155	-329.20142	91.64341	-536.45831	-385.34698	103.25684	-525.99316	-203.50613	502.07507	-419.89709	-297.62921	509.53229	-379.97375	-150.28366	899.38391	-574.10327	-480.5408	1026.9531	-457.99167	-342.50909	824.52087	-93.044434	-438.30682	885.42542	-103.97102	-479.99234	500.93524	154.62488	-573.94434	539.49817	141.55827
434	2.16	-328.42224	90.872704	-536.85101	-384.84454	102.36018	-526.91968	-204.51057	502.09451	-420.39429	-299.28333	509.2272	-381.31326	-150.31824	899.56207	-572.60852	-482.23468	1023.0054	-459.53571	-346.08279	814.46094	-94.955605	-443.07254	875.13501	-106.77333	-488.08133	478.00549	132.85661	-582.51807	516.17523	118.10418
435	2.165	-329.36392	89.125572	-536.55524	-384.49261	101.29609	-527.49762	-205.37859	502.15536	-420.85693	-300.53424	508.94046	-382.92813	-150.53143	899.87762	-571.05743	-483.83334	1019.1387	-461.13046	-349.8187	803.88568	-97.079643	-447.55423	864.39874	-109.8511	-496.0011	456.02979	110.14994	-590.40662	493.52652	93.556267
436	2.17	-329.16431	88.270592	-536.9325	-384.30096	100.49208	-528.08813	-206.4084	502.12955	-421.18292	-301.78671	508.61172	-384.30215	-149.66614	900.39093	-569.97992	-485.33478	1015.494	-462.86267	-353.71194	792.67694	-99.565712	-452.22705	853.03644	-112.85305	-503.34473	433.17572	85.050858	-597.4809	472.01218	68.323265
437	2.175	-328.13834	88.136383	-537.77216	-384.4581	99.518143	-528.56317	-207.19817	502.21564	-421.40527	-303.12415	508.259	-385.69922	-149.92822	900.43939	-568.43408	-487.01093	1011.8991	-464.38031	-357.41992	780.82147	-102.77344	-456.22256	841.5451	-115.67757	-510.54312	412.75851	61.072426	-604.5127	451.42636	42.755924
438	2.18	-328.70053	86.964653	-537.93146	-384.70822	98.579247	-528.9585	-208.47752	502.09302	-421.828	-304.5228	507.95407	-387.07523	-149.78819	900.53613	-567.10083	-488.73468	1008.7997	-466.21411	-361.51257	768.63403	-106.273	-460.2392	829.37097	-119.0814	-517.42236	392.4838	35.477577	-610.30042	431.38098	15.94992
439	2.185	-329.01212	86.219734	-538.19196	-385.26096	97.638374	-529.32727	-209.74831	501.89771	-422.0701	-305.82266	507.73322	-388.60696	-149.15421	900.78809	-565.85577	-491.0181	1005.6497	-468.42511	-365.71191	755.99976	-110.61523	-464.57742	816.97333	-122.38715	-523.53406	372.67093	8.524929	-616.00366	412.90387	-10.730875
